<svg xmlns="http://www.w3.org/2000/svg" width="2560" height="1600" viewBox="0 0 2560 1600" preserveAspectRatio="xMidYMid slice">
  <defs>
    <linearGradient id="sky" x1="0" y1="0" x2="0" y2="1">
      <stop offset="0" stop-color="#f0836a"/>
      <stop offset="0.28" stop-color="#e8654f"/>
      <stop offset="0.55" stop-color="#9d4a86"/>
      <stop offset="0.8" stop-color="#4a2e6b"/>
      <stop offset="1" stop-color="#1a2151"/>
    </linearGradient>
    <linearGradient id="r1" x1="0" y1="0" x2="0" y2="1">
      <stop offset="0" stop-color="#d95a58"/>
      <stop offset="1" stop-color="#a84a7f"/>
    </linearGradient>
    <linearGradient id="r2" x1="0" y1="0" x2="0" y2="1">
      <stop offset="0" stop-color="#8f4488"/>
      <stop offset="1" stop-color="#5a3474"/>
    </linearGradient>
    <linearGradient id="r3" x1="0" y1="0" x2="0" y2="1">
      <stop offset="0" stop-color="#4a2e6b"/>
      <stop offset="1" stop-color="#2a2657"/>
    </linearGradient>
    <linearGradient id="r4" x1="0" y1="0" x2="0" y2="1">
      <stop offset="0" stop-color="#232253"/>
      <stop offset="1" stop-color="#12153a"/>
    </linearGradient>
    <radialGradient id="glow" cx="0.72" cy="0.18" r="0.6">
      <stop offset="0" stop-color="#ffd9a8" stop-opacity="0.55"/>
      <stop offset="0.4" stop-color="#f6a074" stop-opacity="0.2"/>
      <stop offset="1" stop-color="#f6a074" stop-opacity="0"/>
    </radialGradient>
  </defs>

  <rect width="2560" height="1600" fill="url(#sky)"/>
  <rect width="2560" height="1600" fill="url(#glow)"/>

  <path fill="url(#r1)" opacity="0.92"
    d="M0,760
       C 420,660 780,700 1160,760
       C 1560,824 1980,760 2560,700
       L 2560,1600 L 0,1600 Z"/>

  <path fill="url(#r2)" opacity="0.94"
    d="M0,940
       C 480,860 900,1000 1340,980
       C 1780,960 2160,880 2560,920
       L 2560,1600 L 0,1600 Z"/>

  <path fill="url(#r3)" opacity="0.96"
    d="M0,1140
       C 520,1060 860,1180 1300,1180
       C 1760,1180 2120,1080 2560,1140
       L 2560,1600 L 0,1600 Z"/>

  <path fill="url(#r4)"
    d="M0,1340
       C 460,1300 940,1400 1420,1380
       C 1880,1362 2200,1300 2560,1330
       L 2560,1600 L 0,1600 Z"/>
</svg>
